<?xml version="1.0" standalone="no"?>
<!DOCTYPE svg PUBLIC "-//W3C//DTD SVG 20010904//EN"
 "http://www.w3.org/TR/2001/REC-SVG-20010904/DTD/svg10.dtd">
<svg version="1.0" xmlns="http://www.w3.org/2000/svg"
 width="256.000000pt" height="256.000000pt" viewBox="0 0 256.000000 256.000000"
 preserveAspectRatio="xMidYMid meet">
<metadata>
Created by potrace 1.14, written by Peter Selinger 2001-2017
</metadata>
<g transform="translate(0.000000,256.000000) scale(0.100000,-0.100000)"
fill="#000000" stroke="none">
<path d="M1170 2552 c0 -4 -15 -7 -32 -7 -18 1 -36 -4 -40 -9 -5 -8 -8 -8 -8
0 0 6 -10 10 -22 8 -13 -1 -48 -6 -78 -9 -30 -4 -60 -11 -66 -16 -6 -5 -14 -6
-17 -2 -4 3 -7 2 -7 -4 0 -6 -10 -9 -22 -6 -13 3 -20 3 -16 -2 4 -4 1 -14 -7
-21 -17 -17 -29 -18 -19 -1 6 9 5 9 -8 0 -8 -7 -18 -10 -21 -6 -4 3 -7 1 -7
-5 0 -6 -6 -9 -14 -6 -15 6 -56 -12 -67 -28 -3 -5 -16 -10 -28 -11 -13 -1 -20
-6 -16 -15 3 -7 0 -10 -6 -7 -6 4 -13 -2 -16 -14 -3 -11 -9 -19 -13 -16 -4 2
-13 -8 -19 -23 l-13 -27 24 20 c12 11 17 13 11 5 -18 -19 -16 -33 3 -26 8 3
12 2 9 -4 -4 -6 -17 -8 -30 -6 -27 5 -37 -6 -41 -41 -3 -26 22 -57 38 -47 6 4
8 3 5 -2 -7 -12 -54 -11 -64 1 -5 4 -2 5 4 1 9 -5 11 -2 7 9 -7 18 -7 18 -24
-14 -10 -19 -9 -22 1 -16 8 6 10 4 5 -4 -5 -7 -14 -10 -21 -7 -10 3 -12 -2 -9
-20 3 -19 1 -24 -8 -18 -7 4 -10 4 -6 -1 4 -4 2 -15 -5 -23 -6 -9 -7 -13 -2
-10 7 4 11 -7 10 -29 0 -30 4 -36 24 -40 14 -2 27 -6 30 -10 3 -3 -4 -3 -16 0
-13 3 -23 1 -23 -4 0 -5 8 -9 18 -10 10 0 12 -3 5 -6 -7 -2 -13 -11 -13 -19 0
-12 -11 -18 -31 -16 -3 1 -4 -11 -1 -25 3 -18 1 -24 -6 -19 -8 5 -10 2 -6 -8
3 -9 1 -16 -6 -16 -6 0 -8 -4 -5 -10 3 -5 2 -10 -3 -10 -5 0 -9 -6 -10 -12 0
-7 -3 -24 -7 -38 -3 -14 -8 -34 -10 -45 -3 -11 -7 -31 -11 -45 -8 -35 -17
-109 -17 -147 -1 -18 -5 -33 -10 -33 -5 0 -4 -6 2 -14 8 -10 9 -16 1 -21 -7
-4 -7 -13 1 -27 9 -16 8 -19 -2 -13 -8 6 -10 4 -4 -5 9 -14 14 -71 19 -208 1
-45 7 -86 11 -90 5 -4 5 -1 0 7 -5 9 -4 12 2 8 5 -3 8 -20 5 -38 -3 -24 -1
-30 8 -24 9 6 9 3 1 -13 -6 -12 -7 -23 -3 -26 4 -2 9 -22 10 -42 2 -21 8 -45
15 -53 9 -12 9 -13 -1 -7 -10 6 -11 0 -6 -26 3 -18 7 -49 9 -68 2 -19 4 -35 5
-35 2 0 13 -76 13 -97 1 -10 4 -18 8 -18 3 0 5 -11 4 -25 -2 -14 1 -27 6 -31
5 -3 9 -14 9 -25 0 -10 4 -19 8 -19 4 0 9 -10 9 -22 1 -13 7 -24 13 -26 5 -2
7 -9 3 -15 -4 -6 0 -8 9 -5 8 4 15 0 15 -8 0 -7 -4 -11 -9 -8 -4 3 -8 0 -8 -5
0 -6 5 -11 10 -11 6 0 10 -7 10 -15 0 -7 8 -19 18 -24 9 -6 14 -11 10 -11 -4
0 4 -20 18 -45 13 -25 21 -45 17 -45 -4 0 -1 -5 7 -10 8 -5 16 -13 16 -17 4
-23 17 -53 23 -53 4 0 7 -10 8 -22 1 -11 8 -25 15 -29 7 -5 9 -9 5 -9 -5 0 3
-21 17 -46 14 -26 26 -53 26 -60 0 -8 5 -14 12 -14 6 0 9 -3 5 -6 -3 -4 3 -25
15 -48 11 -22 20 -42 19 -43 -10 -19 25 -47 74 -59 63 -16 274 -16 323 0 26 8
67 18 92 21 25 4 54 9 65 12 11 3 47 6 80 7 56 3 105 18 132 41 6 5 26 21 44
35 48 36 160 148 194 195 17 21 41 51 55 65 58 58 100 138 94 178 -3 14 0 21
6 17 6 -4 7 2 1 17 -5 15 -5 31 0 41 7 12 6 17 -2 17 -9 0 -9 3 0 14 16 19 32
76 21 76 -5 0 -3 11 4 24 13 26 14 115 1 136 -6 9 -4 11 5 5 10 -6 12 -4 7 8
-3 9 -3 16 1 16 4 -1 14 -1 22 0 13 1 13 2 0 11 -10 6 -11 10 -2 10 6 0 12 7
12 16 0 8 5 12 10 9 6 -3 10 1 10 9 0 9 5 16 11 16 5 0 8 4 4 9 -3 5 1 16 9
24 8 8 17 27 20 43 2 16 5 30 6 32 2 1 4 7 5 12 1 6 3 11 4 13 2 1 5 13 7 26
2 14 6 27 8 29 2 2 0 17 -4 33 -6 19 -5 29 2 29 6 0 5 7 -3 17 -10 11 -10 14
-1 9 12 -7 17 24 12 89 -1 17 -3 48 -4 71 -1 23 -7 49 -15 58 -7 9 -10 16 -5
16 5 0 3 4 -4 8 -16 10 -4 45 12 35 6 -4 4 2 -4 12 -8 10 -10 16 -3 12 6 -4
14 -3 18 3 3 5 1 10 -5 10 -6 0 -8 5 -5 10 8 13 -5 101 -14 96 -4 -3 -8 14 -9
37 -3 61 -4 67 -15 67 -6 0 -8 3 -4 6 3 3 -3 22 -13 42 -11 19 -17 38 -15 42
3 4 -4 15 -15 25 -11 10 -20 28 -20 41 0 29 -38 100 -73 134 -15 15 -30 38
-32 51 -3 13 -11 29 -18 34 -8 6 -13 21 -12 34 2 23 -73 111 -96 111 -5 0 -7
5 -4 10 3 6 1 10 -5 10 -6 0 -8 4 -5 10 3 5 -5 15 -19 22 -14 6 -26 15 -26 20
0 5 -4 7 -8 4 -5 -3 -16 4 -25 15 -12 13 -25 18 -42 15 -15 -3 -23 -1 -20 5 4
5 12 6 18 2 7 -4 6 1 -2 11 -11 13 -16 14 -22 4 -7 -10 -9 -10 -9 1 0 11 -3
11 -17 0 -14 -12 -16 -12 -8 0 6 11 1 13 -24 9 -24 -3 -31 -1 -27 9 3 7 -1 13
-9 13 -8 0 -15 5 -15 11 0 8 -6 7 -17 -2 -14 -12 -16 -12 -11 2 5 12 1 15 -18
13 -13 -1 -24 1 -24 6 0 4 -18 10 -40 12 -33 3 -39 1 -35 -12 4 -8 -3 -5 -14
7 -17 18 -26 21 -45 13 -13 -5 -26 -7 -29 -4 -2 3 -19 7 -38 9 -25 3 -40 -2
-59 -18 -22 -20 -23 -20 -7 -1 22 26 22 41 0 23 -11 -10 -14 -10 -9 -1 4 6 2
12 -3 12 -6 0 -11 -4 -11 -8z m270 -46 c0 -2 -7 -7 -16 -10 -8 -3 -12 -2 -9 4
6 10 25 14 25 6z m-830 -206 c0 -5 -5 -10 -11 -10 -5 0 -7 5 -4 10 3 6 8 10
11 10 2 0 4 -4 4 -10z m29 -16 c4 3 8 -1 8 -9 0 -11 -4 -12 -14 -4 -7 6 -13
17 -12 23 0 7 2 6 6 -2 2 -6 8 -10 12 -8z m-54 -104 c3 -5 1 -10 -4 -10 -6 0
-11 5 -11 10 0 6 2 10 4 10 3 0 8 -4 11 -10z m-40 -49 c3 -5 2 -12 -3 -15 -5
-3 -9 1 -9 9 0 17 3 19 12 6z m-8 -53 c-3 -8 -6 -5 -6 6 -1 11 2 17 5 13 3 -3
4 -12 1 -19z"/>
<path d="M492 2105 c4 -4 3 -15 -1 -24 -6 -11 -3 -24 10 -40 11 -13 22 -21 25
-18 3 3 -3 14 -14 25 -13 13 -17 24 -11 35 6 10 5 18 -3 23 -7 4 -10 4 -6 -1z"/>
<path d="M456 1993 c-6 -14 -5 -15 5 -6 7 7 10 15 7 18 -3 3 -9 -2 -12 -12z"/>
</g>
</svg>
